<svg width="129" height="30" viewBox="0 0 129 30" fill="none" xmlns="http://www.w3.org/2000/svg">
<path d="M4.08 29.432C2.864 29.0693 2.04267 28.7173 1.616 28.376C1.18933 28.056 0.976 27.608 0.976 27.032C0.976 26.392 1.12533 25.496 1.424 24.344C1.72267 23.1707 2.10667 21.8693 2.576 20.44C3.06667 19.0107 3.62133 17.5173 4.24 15.96C4.85867 14.4027 5.488 12.9093 6.128 11.48C6.768 10.0507 7.38667 8.74933 7.984 7.576C8.60267 6.38133 9.14667 5.45333 9.616 4.792L9.392 3.448C9.69067 3.448 10.1067 3.52267 10.64 3.672C11.1733 3.82133 11.7067 4.00267 12.24 4.216C12.7947 4.42933 13.2747 4.65333 13.68 4.888C14.1067 5.10133 14.3413 5.28267 14.384 5.432C14.2773 5.944 14.192 6.72267 14.128 7.768C14.064 8.792 14.032 9.89067 14.032 11.064C14.032 13.3893 14.1173 15.672 14.288 17.912C14.48 20.1307 14.9067 22.392 15.568 24.696C15.9093 22.9893 16.272 21.2933 16.656 19.608C17.0613 17.9013 17.4773 16.28 17.904 14.744C18.3307 13.1867 18.7573 11.7467 19.184 10.424C19.6107 9.10133 20.016 7.94933 20.4 6.968C20.8053 5.96533 21.1787 5.18667 21.52 4.632C21.8613 4.056 22.1707 3.74667 22.448 3.704C22.6827 3.74667 22.9387 3.84267 23.216 3.992C23.4933 4.12 23.76 4.28 24.016 4.472C24.272 4.664 24.5067 4.87733 24.72 5.112C24.9333 5.34667 25.104 5.58133 25.232 5.816C24.5493 6.09333 23.8667 6.744 23.184 7.768C22.5227 8.792 21.8827 10.04 21.264 11.512C20.6667 12.9627 20.1013 14.5413 19.568 16.248C19.056 17.9547 18.5973 19.64 18.192 21.304C17.808 22.9467 17.4987 24.472 17.264 25.88C17.0507 27.288 16.9333 28.4187 16.912 29.272C16.912 29.3147 16.9227 29.3467 16.944 29.368C16.88 29.3893 16.8053 29.4 16.72 29.4C16.656 29.4 16.592 29.4 16.528 29.4C15.5467 29.4 14.672 29.272 13.904 29.016C13.1573 28.7813 12.6667 28.44 12.432 27.992C11.984 26.2 11.6107 24.472 11.312 22.808C11.0133 21.144 10.7573 19.48 10.544 17.816C10.352 16.152 10.192 14.4773 10.064 12.792C9.95733 11.0853 9.872 9.304 9.808 7.448C9.40267 8.088 8.976 8.93067 8.528 9.976C8.08 11 7.64267 12.1307 7.216 13.368C6.78933 14.6053 6.37333 15.9067 5.968 17.272C5.584 18.6373 5.24267 19.9707 4.944 21.272C4.64533 22.5733 4.41067 23.8107 4.24 24.984C4.06933 26.136 3.984 27.1387 3.984 27.992C3.984 28.44 3.984 28.76 3.984 28.952C4.00533 29.144 4.03733 29.304 4.08 29.432ZM25.88 28.12C24.664 27.992 23.6933 27.4587 22.968 26.52C22.2427 25.5813 21.88 24.3867 21.88 22.936C21.88 22.0827 22.008 21.1973 22.264 20.28C22.52 19.3627 22.8827 18.4773 23.352 17.624C23.8213 16.7493 24.376 15.928 25.016 15.16C25.656 14.392 26.3493 13.7307 27.096 13.176C28.2693 12.3013 29.368 11.864 30.392 11.864C31.0747 12.2267 31.7467 12.984 32.408 14.136C32.5147 14.136 32.6107 14.136 32.696 14.136C32.7813 14.1147 32.8773 14.104 32.984 14.104C34.1147 14.104 34.68 15.1067 34.68 17.112C34.68 18.456 34.456 19.736 34.008 20.952C33.5813 22.1467 32.9733 23.2347 32.184 24.216C31.416 25.1973 30.488 26.0293 29.4 26.712C28.3333 27.3733 27.16 27.8427 25.88 28.12ZM27.512 18.04C27.1493 18.5307 26.808 19.064 26.488 19.64C26.168 20.216 25.8907 20.8027 25.656 21.4C25.4213 21.976 25.24 22.5413 25.112 23.096C24.984 23.6293 24.92 24.1093 24.92 24.536C24.92 25.048 25.0053 25.5387 25.176 26.008C25.3467 26.4773 25.5387 26.744 25.752 26.808C26.712 26.5947 27.5867 26.2 28.376 25.624C29.1867 25.0267 29.88 24.2907 30.456 23.416C31.0533 22.5413 31.512 21.5493 31.832 20.44C32.1733 19.3307 32.344 18.1467 32.344 16.888C32.344 16.3333 32.312 15.896 32.248 15.576C32.184 15.256 32.0773 14.9787 31.928 14.744C30.9893 15.0213 30.1467 15.4693 29.4 16.088C28.6747 16.7067 28.0453 17.3573 27.512 18.04ZM37.7703 15.672C37.7703 15.288 37.7916 14.9253 37.8343 14.584C37.8983 14.2427 38.0156 13.9547 38.1863 13.72C38.3569 13.464 38.5916 13.272 38.8903 13.144C39.1889 12.9947 39.5836 12.92 40.0743 12.92C40.3729 12.92 40.7036 12.952 41.0663 13.016C41.4503 13.08 41.7276 13.1973 41.8983 13.368C41.8129 13.7307 41.7383 14.0507 41.6743 14.328C41.6316 14.6053 41.5889 14.9147 41.5463 15.256C41.5249 15.576 41.5036 15.9707 41.4823 16.44C41.4609 16.888 41.4396 17.4747 41.4183 18.2C41.3756 19.6507 41.3009 20.952 41.1943 22.104C41.1089 23.2347 40.8956 24.3653 40.5543 25.496C40.5543 25.5813 40.5863 25.624 40.6503 25.624C40.9703 25.3893 41.3329 25.048 41.7383 24.6C42.1436 24.152 42.5703 23.6507 43.0183 23.096C43.4663 22.52 43.9143 21.912 44.3623 21.272C44.8103 20.632 45.2263 20.0027 45.6103 19.384C46.1223 18.488 46.6876 17.368 47.3063 16.024C47.9249 14.68 48.4369 13.24 48.8423 11.704C48.9703 11.704 49.1303 11.736 49.3223 11.8C49.5356 11.8427 49.7383 11.9067 49.9303 11.992C50.1436 12.056 50.3249 12.1307 50.4743 12.216C50.6449 12.3013 50.7623 12.376 50.8263 12.44C50.7836 13.3573 50.5596 14.296 50.1543 15.256C49.7703 16.216 49.3009 17.144 48.7463 18.04C48.1916 18.936 47.6049 19.7787 46.9863 20.568C46.3676 21.3573 45.8023 22.04 45.2903 22.616C44.2663 23.8107 43.2316 24.8773 42.1863 25.816C41.1623 26.7547 39.9356 27.6613 38.5063 28.536C37.9516 28.3227 37.5143 28.0347 37.1943 27.672C36.8743 27.3307 36.7143 26.968 36.7143 26.584C36.7143 26.328 36.7676 26.04 36.8743 25.72C37.0023 25.3787 37.1409 24.952 37.2903 24.44C37.4396 23.9067 37.5676 23.2453 37.6743 22.456C37.8023 21.6667 37.8663 20.664 37.8663 19.448C37.8663 18.744 37.8449 18.04 37.8023 17.336C37.7809 16.6107 37.7703 16.056 37.7703 15.672ZM61.81 13.752C61.7247 15.0747 61.49 16.216 61.106 17.176C60.722 18.1147 60.1673 18.9467 59.442 19.672C58.738 20.376 57.874 21.016 56.85 21.592C55.826 22.168 54.6313 22.7227 53.266 23.256C53.266 23.384 53.2553 23.5227 53.234 23.672C53.234 23.8 53.234 23.9387 53.234 24.088C53.234 24.3653 53.2553 24.6533 53.298 24.952C53.3407 25.2507 53.4153 25.528 53.522 25.784C53.6287 26.04 53.778 26.2533 53.97 26.424C54.162 26.5733 54.4073 26.648 54.706 26.648C55.282 26.648 55.8473 26.52 56.402 26.264C56.9567 26.008 57.4793 25.6987 57.97 25.336C58.482 24.952 58.9513 24.5467 59.378 24.12C59.826 23.672 60.2207 23.2667 60.562 22.904C60.7753 23.096 60.9567 23.2773 61.106 23.448C60.146 24.728 59.09 25.7947 57.938 26.648C56.8073 27.48 55.73 28.0133 54.706 28.248C53.234 28.0773 52.082 27.544 51.25 26.648C50.4393 25.7307 50.034 24.632 50.034 23.352C50.034 22.4773 50.1513 21.592 50.386 20.696C50.642 19.7787 50.9833 18.904 51.41 18.072C51.858 17.2187 52.37 16.4187 52.946 15.672C53.5433 14.9253 54.1727 14.2747 54.834 13.72C55.5167 13.1653 56.21 12.728 56.914 12.408C57.6393 12.088 58.354 11.928 59.058 11.928C60.0393 12.056 60.9567 12.664 61.81 13.752ZM59.602 14.808C59.026 14.8933 58.4287 15.128 57.81 15.512C57.1913 15.896 56.6047 16.408 56.05 17.048C55.5167 17.688 55.026 18.4347 54.578 19.288C54.13 20.1413 53.778 21.0587 53.522 22.04C55.2287 21.1867 56.6473 20.1413 57.778 18.904C58.9087 17.6453 59.5167 16.28 59.602 14.808ZM81.7875 17.176C81.4462 17.1973 81.0302 17.4213 80.5395 17.848C80.0488 18.2533 79.5155 18.7867 78.9395 19.448C78.3848 20.088 77.7982 20.8027 77.1795 21.592C76.5822 22.3813 75.9955 23.1707 75.4195 23.96C74.8648 24.728 74.3422 25.4533 73.8515 26.136C73.3608 26.8187 72.9448 27.3627 72.6035 27.768C72.1342 27.576 71.7288 27.2987 71.3875 26.936C71.0462 26.552 70.8008 26.0827 70.6515 25.528C70.7582 24.8667 70.9075 24.184 71.0995 23.48C71.2915 22.7547 71.5368 22.008 71.8355 21.24C72.1555 20.472 72.5395 19.672 72.9875 18.84C73.4568 17.9867 74.0222 17.0907 74.6835 16.152C74.3635 16.1733 73.9262 16.408 73.3715 16.856C72.8168 17.2827 72.2195 17.848 71.5795 18.552C70.9395 19.2347 70.2782 20.0133 69.5955 20.888C68.9128 21.7413 68.2728 22.584 67.6755 23.416C66.8862 24.5253 66.2248 25.496 65.6915 26.328C65.1795 27.16 64.8062 27.6507 64.5715 27.8C64.0168 27.3947 63.6328 26.9573 63.4195 26.488C63.2062 26.0187 63.0462 25.496 62.9395 24.92C62.9608 24.408 63.0355 23.768 63.1635 23C63.3128 22.232 63.5155 21.4427 63.7715 20.632C64.2622 19.0747 64.8915 17.528 65.6595 15.992C66.4488 14.456 67.2062 13.048 67.9315 11.768C68.5288 11.896 69.0622 12.0987 69.5315 12.376C70.0222 12.6533 70.5342 13.0587 71.0675 13.592C70.8542 14.2533 70.5235 14.9573 70.0755 15.704C69.6275 16.4293 69.1582 17.1973 68.6675 18.008C68.1768 18.8187 67.7288 19.6507 67.3235 20.504C66.9182 21.3573 66.6515 22.2213 66.5235 23.096C67.1208 22.2427 67.8248 21.2613 68.6355 20.152C69.4675 19.0427 70.3102 17.9973 71.1635 17.016C72.0382 16.0347 72.9022 15.2027 73.7555 14.52C74.6088 13.8373 75.3768 13.496 76.0595 13.496C76.3155 13.496 76.5928 13.5387 76.8915 13.624C77.1902 13.7093 77.4675 13.816 77.7235 13.944C77.9795 14.072 78.1928 14.2 78.3635 14.328C78.5342 14.4347 78.6302 14.52 78.6515 14.584C78.5448 15.0107 78.2888 15.5973 77.8835 16.344C77.4995 17.0693 77.0835 17.8373 76.6355 18.648C76.1875 19.4587 75.7715 20.248 75.3875 21.016C75.0035 21.7627 74.7795 22.36 74.7155 22.808C75.7608 21.3787 76.7422 20.088 77.6595 18.936C78.5768 17.7627 79.4408 16.76 80.2515 15.928C81.0622 15.096 81.8088 14.456 82.4915 14.008C83.1955 13.56 83.8568 13.336 84.4755 13.336C84.9022 13.336 85.2968 13.4533 85.6595 13.688C86.0435 13.9013 86.3102 14.2213 86.4595 14.648C86.2675 15.288 85.9475 16.056 85.4995 16.952C85.0728 17.848 84.6355 18.7973 84.1875 19.8C83.7395 20.7813 83.3342 21.752 82.9715 22.712C82.6302 23.672 82.4595 24.536 82.4595 25.304C82.4595 25.752 82.5235 26.0507 82.6515 26.2C82.7795 26.328 82.9608 26.392 83.1955 26.392C83.4515 26.392 83.6862 26.3493 83.8995 26.264C84.1342 26.1573 84.3048 26.104 84.4115 26.104C84.5395 26.1893 84.6142 26.296 84.6355 26.424C84.6568 26.552 84.6675 26.6693 84.6675 26.776C84.2408 27.1173 83.8035 27.3947 83.3555 27.608C82.9075 27.8427 82.4062 27.96 81.8515 27.96C81.3395 27.96 80.9128 27.8747 80.5715 27.704C80.2515 27.5333 79.9848 27.2987 79.7715 27C79.5582 26.7013 79.4088 26.36 79.3235 25.976C79.2382 25.592 79.1955 25.176 79.1955 24.728C79.1955 24.0027 79.2915 23.288 79.4835 22.584C79.6755 21.8587 79.8995 21.176 80.1555 20.536C80.4328 19.8747 80.7208 19.2667 81.0195 18.712C81.3182 18.136 81.5742 17.624 81.7875 17.176ZM90.5793 27.224C91.5606 26.5627 92.5206 25.72 93.4593 24.696C94.3979 23.6507 95.2513 22.5307 96.0193 21.336C96.7873 20.12 97.4379 18.8613 97.9713 17.56C98.5046 16.2587 98.8673 15.0107 99.0593 13.816C99.0593 13.56 98.9206 13.3893 98.6433 13.304C98.3446 13.304 97.9286 13.5707 97.3953 14.104C96.8833 14.616 96.3073 15.2773 95.6673 16.088C95.0486 16.8987 94.4086 17.8053 93.7473 18.808C93.1073 19.8107 92.5206 20.8133 91.9873 21.816C91.4539 22.7973 90.9953 23.7253 90.6113 24.6C90.2486 25.4533 90.0459 26.1467 90.0033 26.68C89.7899 26.68 89.6086 26.4667 89.4593 26.04C89.4166 25.9333 89.3419 25.8267 89.2352 25.72C89.1286 25.592 88.9579 25.4427 88.7233 25.272C88.6166 25.1867 88.5099 25.0907 88.4033 24.984C88.2966 24.856 88.2219 24.7493 88.1793 24.664C88.0939 24.4933 88.0513 24.216 88.0513 23.832C88.0513 22.5733 88.2113 21.1547 88.5312 19.576C88.8513 17.9973 89.2673 16.3867 89.7793 14.744C90.3126 13.1013 90.9313 11.4907 91.6353 9.912C92.3393 8.312 93.0646 6.85067 93.8113 5.528C94.5793 4.20533 95.3473 3.08533 96.1153 2.168C96.8833 1.25067 97.6086 0.642665 98.2913 0.343998C98.5046 0.407998 98.7606 0.514666 99.0593 0.664C99.3579 0.813332 99.6566 0.983999 99.9553 1.176C100.254 1.368 100.531 1.56 100.787 1.752C101.065 1.944 101.267 2.11467 101.395 2.264C99.0486 4.16267 97.0113 6.60533 95.2833 9.592C93.5766 12.5573 92.1793 16.0667 91.0913 20.12C91.6886 19.0107 92.3606 17.944 93.1073 16.92C93.8539 15.8747 94.5899 14.9573 95.3153 14.168C96.0619 13.3787 96.7659 12.7493 97.4273 12.28C98.1099 11.8107 98.6753 11.576 99.1233 11.576C99.4646 11.6613 99.7953 11.8107 100.115 12.024C100.435 12.2373 100.723 12.504 100.979 12.824C101.235 13.1227 101.449 13.4533 101.619 13.816C101.79 14.1573 101.897 14.52 101.939 14.904C101.918 15.8 101.758 16.76 101.459 17.784C101.182 18.7867 100.798 19.7787 100.307 20.76C99.8379 21.7413 99.2939 22.68 98.6753 23.576C98.0779 24.472 97.4379 25.2613 96.7553 25.944C96.0939 26.6053 95.4219 27.1387 94.7393 27.544C94.0779 27.9493 93.4486 28.152 92.8513 28.152C92.5953 28.152 92.3286 28.12 92.0513 28.056C91.7953 28.0133 91.5499 27.9387 91.3153 27.832C91.1019 27.7467 90.9206 27.6507 90.7713 27.544C90.6433 27.4373 90.5793 27.3307 90.5793 27.224ZM114.185 13.752C114.1 15.0747 113.865 16.216 113.481 17.176C113.097 18.1147 112.542 18.9467 111.817 19.672C111.113 20.376 110.249 21.016 109.225 21.592C108.201 22.168 107.006 22.7227 105.641 23.256C105.641 23.384 105.63 23.5227 105.609 23.672C105.609 23.8 105.609 23.9387 105.609 24.088C105.609 24.3653 105.63 24.6533 105.673 24.952C105.716 25.2507 105.79 25.528 105.897 25.784C106.004 26.04 106.153 26.2533 106.345 26.424C106.537 26.5733 106.782 26.648 107.081 26.648C107.657 26.648 108.222 26.52 108.777 26.264C109.332 26.008 109.854 25.6987 110.345 25.336C110.857 24.952 111.326 24.5467 111.753 24.12C112.201 23.672 112.596 23.2667 112.937 22.904C113.15 23.096 113.332 23.2773 113.481 23.448C112.521 24.728 111.465 25.7947 110.313 26.648C109.182 27.48 108.105 28.0133 107.081 28.248C105.609 28.0773 104.457 27.544 103.625 26.648C102.814 25.7307 102.409 24.632 102.409 23.352C102.409 22.4773 102.526 21.592 102.761 20.696C103.017 19.7787 103.358 18.904 103.785 18.072C104.233 17.2187 104.745 16.4187 105.321 15.672C105.918 14.9253 106.548 14.2747 107.209 13.72C107.892 13.1653 108.585 12.728 109.289 12.408C110.014 12.088 110.729 11.928 111.433 11.928C112.414 12.056 113.332 12.664 114.185 13.752ZM111.977 14.808C111.401 14.8933 110.804 15.128 110.185 15.512C109.566 15.896 108.98 16.408 108.425 17.048C107.892 17.688 107.401 18.4347 106.953 19.288C106.505 20.1413 106.153 21.0587 105.897 22.04C107.604 21.1867 109.022 20.1413 110.153 18.904C111.284 17.6453 111.892 16.28 111.977 14.808ZM114.899 26.36C115.005 25.7413 115.187 24.9307 115.443 23.928C115.72 22.904 116.04 21.8267 116.403 20.696C116.765 19.544 117.149 18.392 117.555 17.24C117.96 16.088 118.355 15.0533 118.739 14.136C119.016 13.4747 119.261 12.9627 119.475 12.6C119.688 12.216 119.923 11.896 120.179 11.64C120.477 11.6827 120.787 11.7573 121.107 11.864C121.427 11.9707 121.736 12.0987 122.035 12.248C122.333 12.3973 122.6 12.5573 122.835 12.728C123.069 12.8773 123.251 13.0267 123.379 13.176C122.803 13.8587 122.291 14.6373 121.843 15.512C121.416 16.3867 120.979 17.5067 120.531 18.872C121.683 17.848 122.696 16.8667 123.571 15.928C124.467 14.9893 125.299 13.944 126.067 12.792C126.195 12.6853 126.419 12.632 126.739 12.632C127.037 12.632 127.325 12.6853 127.603 12.792C127.88 12.8773 128.072 13.0053 128.179 13.176C127.795 14.2 127.603 15.2133 127.603 16.216C127.603 17.1547 127.741 17.8587 128.019 18.328C127.997 18.456 127.848 18.7013 127.571 19.064C127.315 19.4267 127.027 19.768 126.707 20.088C126.131 19.7893 125.619 19.384 125.171 18.872C124.723 18.3387 124.392 17.7627 124.179 17.144C123.176 17.848 122.323 18.5413 121.619 19.224C120.915 19.8853 120.307 20.632 119.795 21.464C119.304 22.2747 118.877 23.2133 118.515 24.28C118.173 25.3467 117.843 26.616 117.523 28.088C117.331 28.0667 117.096 27.992 116.819 27.864C116.563 27.7573 116.296 27.6187 116.019 27.448C115.763 27.2773 115.528 27.096 115.315 26.904C115.101 26.712 114.963 26.5307 114.899 26.36Z" fill="black"/>
</svg>
